
<global>
amp_veltrack=100.0
ampeg_release=8.5
master-volume=10
</global>

<group>
group_label=RR1
seq_length=8

<region>
hivel=103
key=D3
lovel=78
offset=3680
sample=FieldDrum_On_Hit_F_D4_RR1.opus
</region>

<region>
hivel=127
key=D3
lovel=104
sample=FieldDrum_On_Hit_FF_D4_RR1.opus
</region>

<region>
hivel=77
key=D3
lovel=52
offset=4987
sample=FieldDrum_On_Hit_MF_D4_RR1.opus
</region>

<region>
hivel=51
key=D3
lovel=26
offset=5051
sample=FieldDrum_On_Hit_MP_D4_RR1.opus
</region>

<region>
hivel=25
key=D3
lovel=0
offset=7327
sample=FieldDrum_On_Hit_P_D4_RR1.opus
volume=6.0
</region>

<region>
hivel=103
key=C3
lovel=78
offset=4458
sample=FieldDrum_On_Rim_F_D4_RR1.opus
</region>

<region>
hivel=127
key=C3
lovel=104
offset=4469
sample=FieldDrum_On_Rim_FF_D4_RR1.opus
</region>

<region>
hivel=77
key=C3
lovel=52
offset=4476
sample=FieldDrum_On_Rim_MF_D4_RR1.opus
</region>

<region>
hivel=51
key=C3
lovel=26
offset=4427
sample=FieldDrum_On_Rim_MP_D4_RR1.opus
</region>

<region>
hivel=25
key=C3
lovel=0
offset=6073
sample=FieldDrum_On_Rim_P_D4_RR1.opus
volume=6.0
</region>
</group>

<group>
group_label=RR2
seq_length=8
seq_position=2

<region>
hivel=103
key=D3
lovel=78
sample=FieldDrum_On_Hit_F_D4_RR2.opus
</region>

<region>
hivel=127
key=D3
lovel=104
sample=FieldDrum_On_Hit_FF_D4_RR2.opus
</region>

<region>
hivel=77
key=D3
lovel=52
offset=4963
sample=FieldDrum_On_Hit_MF_D4_RR2.opus
</region>

<region>
hivel=51
key=D3
lovel=26
offset=5013
sample=FieldDrum_On_Hit_MP_D4_RR2.opus
</region>

<region>
hivel=25
key=D3
lovel=0
offset=6233
sample=FieldDrum_On_Hit_P_D4_RR2.opus
volume=6.0
</region>

<region>
hivel=103
key=C3
lovel=78
offset=4451
sample=FieldDrum_On_Rim_F_D4_RR2.opus
</region>

<region>
hivel=127
key=C3
lovel=104
offset=4472
sample=FieldDrum_On_Rim_FF_D4_RR2.opus
</region>

<region>
hivel=77
key=C3
lovel=52
offset=4454
sample=FieldDrum_On_Rim_MF_D4_RR2.opus
</region>

<region>
hivel=51
key=C3
lovel=26
offset=5561
sample=FieldDrum_On_Rim_MP_D4_RR2.opus
</region>

<region>
hivel=25
key=C3
lovel=0
offset=5411
sample=FieldDrum_On_Rim_P_D4_RR2.opus
volume=6.0
</region>
</group>

<group>
group_label=RR3
seq_length=8
seq_position=3

<region>
hivel=103
key=D3
lovel=78
sample=FieldDrum_On_Hit_F_D4_RR3.opus
</region>

<region>
hivel=127
key=D3
lovel=104
sample=FieldDrum_On_Hit_FF_D4_RR3.opus
</region>

<region>
hivel=77
key=D3
lovel=52
offset=4983
sample=FieldDrum_On_Hit_MF_D4_RR3.opus
</region>

<region>
hivel=51
key=D3
lovel=26
offset=4917
sample=FieldDrum_On_Hit_MP_D4_RR3.opus
</region>

<region>
hivel=25
key=D3
lovel=0
offset=5846
sample=FieldDrum_On_Hit_P_D4_RR3.opus
volume=6.0
</region>

<region>
hivel=103
key=C3
lovel=78
offset=4461
sample=FieldDrum_On_Rim_F_D4_RR3.opus
</region>

<region>
hivel=127
key=C3
lovel=104
offset=4454
sample=FieldDrum_On_Rim_FF_D4_RR3.opus
</region>

<region>
hivel=77
key=C3
lovel=52
offset=4518
sample=FieldDrum_On_Rim_MF_D4_RR3.opus
</region>

<region>
hivel=51
key=C3
lovel=26
offset=5867
sample=FieldDrum_On_Rim_MP_D4_RR3.opus
</region>

<region>
hivel=25
key=C3
lovel=0
offset=5872
sample=FieldDrum_On_Rim_P_D4_RR3.opus
volume=6.0
</region>
</group>

<group>
group_label=RR4
seq_length=8
seq_position=4

<region>
hivel=103
key=D3
lovel=78
sample=FieldDrum_On_Hit_F_D4_RR4.opus
</region>

<region>
hivel=127
key=D3
lovel=104
offset=2777
sample=FieldDrum_On_Hit_FF_D4_RR4.opus
</region>

<region>
hivel=77
key=D3
lovel=52
offset=4981
sample=FieldDrum_On_Hit_MF_D4_RR4.opus
</region>

<region>
hivel=51
key=D3
lovel=26
offset=5034
sample=FieldDrum_On_Hit_MP_D4_RR4.opus
</region>

<region>
hivel=25
key=D3
lovel=0
offset=6173
sample=FieldDrum_On_Hit_P_D4_RR4.opus
volume=6.0
</region>

<region>
hivel=103
key=C3
lovel=78
offset=4452
sample=FieldDrum_On_Rim_F_D4_RR4.opus
</region>

<region>
hivel=127
key=C3
lovel=104
offset=4469
sample=FieldDrum_On_Rim_FF_D4_RR4.opus
</region>

<region>
hivel=77
key=C3
lovel=52
offset=4451
sample=FieldDrum_On_Rim_MF_D4_RR4.opus
</region>

<region>
hivel=51
key=C3
lovel=26
offset=4412
sample=FieldDrum_On_Rim_MP_D4_RR4.opus
</region>

<region>
hivel=25
key=C3
lovel=0
offset=5666
sample=FieldDrum_On_Rim_P_D4_RR4.opus
volume=6.0
</region>
</group>

<group>
group_label=RR5
seq_length=8
seq_position=5

<region>
hivel=103
key=D3
lovel=78
offset=261
sample=FieldDrum_On_Hit_F_D4_RR5.opus
</region>

<region>
hivel=127
key=D3
lovel=104
offset=3998
sample=FieldDrum_On_Hit_FF_D4_RR5.opus
</region>

<region>
hivel=77
key=D3
lovel=52
offset=4984
sample=FieldDrum_On_Hit_MF_D4_RR5.opus
</region>

<region>
hivel=51
key=D3
lovel=26
offset=5014
sample=FieldDrum_On_Hit_MP_D4_RR5.opus
</region>

<region>
hivel=25
key=D3
lovel=0
offset=5640
sample=FieldDrum_On_Hit_P_D4_RR5.opus
volume=6.0
</region>

<region>
hivel=103
key=C3
lovel=78
offset=4471
sample=FieldDrum_On_Rim_F_D4_RR5.opus
</region>

<region>
hivel=127
key=C3
lovel=104
offset=4431
sample=FieldDrum_On_Rim_FF_D4_RR5.opus
</region>

<region>
hivel=77
key=C3
lovel=52
offset=4456
sample=FieldDrum_On_Rim_MF_D4_RR5.opus
</region>

<region>
hivel=51
key=C3
lovel=26
offset=4397
sample=FieldDrum_On_Rim_MP_D4_RR5.opus
</region>

<region>
hivel=25
key=C3
lovel=0
offset=5181
sample=FieldDrum_On_Rim_P_D4_RR5.opus
volume=6.0
</region>
</group>

<group>
group_label=RR6
seq_length=8
seq_position=6

<region>
hivel=103
key=D3
lovel=78
sample=FieldDrum_On_Hit_F_D4_RR6.opus
</region>

<region>
hivel=127
key=D3
lovel=104
sample=FieldDrum_On_Hit_FF_D4_RR6.opus
</region>

<region>
hivel=77
key=D3
lovel=52
offset=5013
sample=FieldDrum_On_Hit_MF_D4_RR6.opus
</region>

<region>
hivel=51
key=D3
lovel=26
offset=5054
sample=FieldDrum_On_Hit_MP_D4_RR6.opus
</region>

<region>
hivel=25
key=D3
lovel=0
offset=5809
sample=FieldDrum_On_Hit_P_D4_RR6.opus
volume=6.0
</region>

<region>
hivel=103
key=C3
lovel=78
offset=4451
sample=FieldDrum_On_Rim_F_D4_RR6.opus
</region>

<region>
hivel=127
key=C3
lovel=104
offset=4446
sample=FieldDrum_On_Rim_FF_D4_RR6.opus
</region>

<region>
hivel=77
key=C3
lovel=52
offset=4465
sample=FieldDrum_On_Rim_MF_D4_RR6.opus
</region>

<region>
hivel=51
key=C3
lovel=26
offset=4425
sample=FieldDrum_On_Rim_MP_D4_RR6.opus
</region>

<region>
hivel=25
key=C3
lovel=0
offset=5424
sample=FieldDrum_On_Rim_P_D4_RR6.opus
volume=6.0
</region>
</group>

<group>
group_label=RR7
seq_length=8
seq_position=7

<region>
hivel=103
key=D3
lovel=78
sample=FieldDrum_On_Hit_F_D4_RR7.opus
</region>

<region>
hivel=127
key=D3
lovel=104
sample=FieldDrum_On_Hit_FF_D4_RR7.opus
</region>

<region>
hivel=77
key=D3
lovel=52
offset=5012
sample=FieldDrum_On_Hit_MF_D4_RR7.opus
</region>

<region>
hivel=51
key=D3
lovel=26
offset=4917
sample=FieldDrum_On_Hit_MP_D4_RR7.opus
</region>

<region>
hivel=25
key=D3
lovel=0
offset=5767
sample=FieldDrum_On_Hit_P_D4_RR7.opus
volume=6.0
</region>

<region>
hivel=103
key=C3
lovel=78
offset=4458
sample=FieldDrum_On_Rim_F_D4_RR7.opus
</region>

<region>
hivel=127
key=C3
lovel=104
offset=4431
sample=FieldDrum_On_Rim_FF_D4_RR7.opus
</region>

<region>
hivel=77
key=C3
lovel=52
offset=4502
sample=FieldDrum_On_Rim_MF_D4_RR7.opus
</region>

<region>
hivel=51
key=C3
lovel=26
offset=4453
sample=FieldDrum_On_Rim_MP_D4_RR7.opus
</region>

<region>
hivel=25
key=C3
lovel=0
offset=5608
sample=FieldDrum_On_Rim_P_D4_RR7.opus
volume=6.0
</region>
</group>

<group>
group_label=RR8
seq_length=8
seq_position=8

<region>
hivel=103
key=D3
lovel=78
offset=2915
sample=FieldDrum_On_Hit_F_D4_RR8.opus
</region>

<region>
hivel=127
key=D3
lovel=104
sample=FieldDrum_On_Hit_FF_D4_RR8.opus
</region>

<region>
hivel=77
key=D3
lovel=52
offset=4981
sample=FieldDrum_On_Hit_MF_D4_RR8.opus
</region>

<region>
hivel=51
key=D3
lovel=26
offset=5034
sample=FieldDrum_On_Hit_MP_D4_RR8.opus
</region>

<region>
hivel=25
key=D3
lovel=0
offset=5025
sample=FieldDrum_On_Hit_P_D4_RR8.opus
volume=6.0
</region>

<region>
hivel=103
key=C3
lovel=78
offset=4452
sample=FieldDrum_On_Rim_F_D4_RR8.opus
</region>

<region>
hivel=127
key=C3
lovel=104
offset=4464
sample=FieldDrum_On_Rim_FF_D4_RR8.opus
</region>

<region>
hivel=77
key=C3
lovel=52
offset=4477
sample=FieldDrum_On_Rim_MF_D4_RR8.opus
</region>

<region>
hivel=51
key=C3
lovel=26
offset=4410
sample=FieldDrum_On_Rim_MP_D4_RR8.opus
</region>

<region>
hivel=25
key=C3
lovel=0
offset=4560
sample=FieldDrum_On_Rim_P_D4_RR8.opus
volume=6.0
</region>
</group>